:SAMPLES-PER-SECOND 30
:FULLY-SPECIFIED
:DEGREES
404
root  49.4087 32.7736 11.5099 -171.43 -58.6822 177.742
RightUpLeg  -12.2782 -27.5383 3.05263
RightLeg  55.8317 -8.15969 -10.4085
RightFoot  2.92334 0.0198978 -0.402145
RightToes  -35.6163 -0.184445 -0.289044
Spine  6.24069 0.713055 -3.52459
Spine1  10.9569 3.07839 -8.26833
HEad  8.99543 -14.1943 19.9253
LeftShoulder1  0 -2.42657e-020 -4.95415e-022
LeftArm  -38.0778 6.7473 -77.0092
LeftForeArm  53.4294 -15.5509 -2.77685
LeftHand  0.356682 -9.14507 -4.83124
RightShoulder  0 2.42657e-020 1.07489e-018
RightArm  -8.8217 -1.49363 92.1584
RightForeArm  49.9335 23.5692 4.38108
RightHand  0.226674 23.6055 1.45513
LeftUpLeg  -26.1674 -11.4377 -3.72174
LeftLeg  30.0301 -8.0136 -3.95346
LeftFoot  -1.20309 0.00437418 0.416602
LeftToes  -3.75259 9.37529e-007 1.1992e-007
405
root  49.0589 32.8819 10.8426 -171.74 -60.6836 177.784
RightUpLeg  -14.7768 -30.1539 2.12407
RightLeg  58.8361 -5.87071 -8.4327
RightFoot  1.17307 0.00334657 0.0506203
RightToes  -35.7189 -0.185218 -0.289684
Spine  6.22775 0.552527 -3.47504
Spine1  10.9766 2.57565 -7.94614
HEad  9.56288 -10.8801 18.6548
LeftShoulder1  0 -2.42657e-020 -4.95415e-022
LeftArm  -33.7451 4.86953 -78.4479
LeftForeArm  50.8787 -18.1359 -3.27849
LeftHand  0.366482 -9.17771 -4.93732
RightShoulder  0 2.42657e-020 1.07489e-018
RightArm  -9.43289 -2.21419 92.1866
RightForeArm  50.089 23.6673 4.40148
RightHand  0.0648094 23.7249 0.678733
LeftUpLeg  -24.528 -12.2015 -3.23045
LeftLeg  29.3793 -9.06618 -4.33986
LeftFoot  -1.59505 0.00662628 0.476001
LeftToes  -4.70336 9.37529e-007 1.1992e-007
406
root  48.775 32.9732 10.1854 -172.102 -62.4871 177.982
RightUpLeg  -17.1842 -31.9795 1.41729
RightLeg  59.5977 -5.28749 -7.83506
RightFoot  1.15333 0.00333361 0.0463139
RightToes  -36.6271 -0.192116 -0.298256
Spine  6.31259 0.442779 -3.40539
Spine1  11.1784 2.18935 -7.64327
HEad  9.18723 -8.51246 17.5787
LeftShoulder1  0 -2.42657e-020 -4.95415e-022
LeftArm  -29.7644 2.8578 -79.8421
LeftForeArm  48.7092 -20.7383 -3.79834
LeftHand  0.360159 -9.24556 -4.82552
RightShoulder  0 2.42657e-020 1.07489e-018
RightArm  -10.771 -2.60233 92.2536
RightForeArm  49.3899 23.8969 4.45121
RightHand  -0.204584 23.6921 -0.605495
LeftUpLeg  -23.1823 -12.7269 -2.56716
LeftLeg  28.875 -10.1908 -4.76124
LeftFoot  -1.97213 0.00945951 0.549582
LeftToes  -6.05187 9.37529e-007 1.1992e-007
407
root  48.5258 33.0443 9.51987 -172.844 -64.169 178.651
RightUpLeg  -19.0718 -33.3712 0.605372
RightLeg  58.1942 -5.78454 -8.11826
RightFoot  0.638509 0.00150247 0.10779
RightToes  -37.8794 -0.201768 -0.302832
Spine  6.38824 0.326948 -3.25193
Spine1  11.3437 1.80807 -7.23595
HEad  8.79927 -6.70022 16.4152
LeftShoulder1  0 -2.42657e-020 -4.95415e-022
LeftArm  -26.1716 1.2207 -81.1183
LeftForeArm  46.6007 -23.2286 -4.31329
LeftHand  0.345544 -9.4285 -4.56161
RightShoulder  0 2.42657e-020 1.07489e-018
RightArm  -12.3357 -2.74053 92.2483
RightForeArm  48.572 24.1119 4.49819
RightHand  -0.433994 23.6298 -1.70493
LeftUpLeg  -22.1563 -13.2878 -1.59917
LeftLeg  28.7171 -11.1735 -5.17503
LeftFoot  -2.45574 0.0140743 0.656625
LeftToes  -7.83054 9.37529e-007 1.1992e-007
408
root  48.3083 33.0852 8.84512 -173.677 -65.5459 179.413
RightUpLeg  -20.3324 -34.1057 -0.480752
RightLeg  55.2107 -7.44213 -9.31483
RightFoot  -1.44594 0.00193216 0.530921
RightToes  -35.368 -0.182578 -0.28749
Spine  6.42683 0.203954 -3.08242
Spine1  11.4108 1.48971 -6.97265
HEad  8.80315 -4.83962 15.2193
LeftShoulder1  0 -2.42657e-020 -4.95415e-022
LeftArm  -23.0351 -0.155274 -82.1365
LeftForeArm  44.1827 -25.334 -4.76511
LeftHand  0.309582 -9.32089 -4.16928
RightShoulder  0 2.42657e-020 1.07489e-018
RightArm  -13.919 -2.47131 92.3461
RightForeArm  48.8669 24.0396 4.48233
RightHand  -0.5919 23.6695 -2.45479
LeftUpLeg  -21.232 -14.0869 -0.54971
LeftLeg  28.61 -11.6372 -5.35946
LeftFoot  -3.06932 0.0210226 0.784656
LeftToes  -9.44056 9.37529e-007 1.1992e-007
409
root  48.1087 33.1143 8.14794 -174.318 -66.1997 179.974
RightUpLeg  -21.2509 -33.1069 -1.81503
RightLeg  51.0162 -9.83196 -10.5358
RightFoot  -1.22439 0.00180274 0.546574
RightToes  -34.794 -0.178287 -0.283866
Spine  6.46022 0.246389 -2.98597
Spine1  11.4499 1.52929 -6.86935
HEad  8.98349 -3.12238 14.1533
LeftShoulder1  0 -2.42657e-020 -4.95415e-022
LeftArm  -21.0183 -1.32568 -82.9576
LeftForeArm  43.2446 -27.1777 -5.1724
LeftHand  0.290654 -9.37806 -3.91531
RightShoulder  0 2.42657e-020 1.07489e-018
RightArm  -15.3014 -2.03675 92.3444
RightForeArm  49.5236 24.0896 4.4918
RightHand  -0.659678 23.7286 -2.77006
LeftUpLeg  -20.2859 -14.4972 0.420372
LeftLeg  28.4951 -11.8172 -5.41229
LeftFoot  -3.75163 0.0301433 0.920353
LeftToes  -11.137 9.37529e-007 1.1992e-007
410
root  47.9445 33.1137 7.4381 -174.92 -66.6393 -179.4
RightUpLeg  -21.6674 -31.2297 -3.61714
RightLeg  45.6896 -10.6811 -9.50282
RightFoot  -0.478471 -7.28032e-005 0.360639
RightToes  -34.8484 -0.178558 -0.28225
Spine  6.42829 0.276083 -2.85168
Spine1  11.3813 1.52942 -6.66385
HEad  9.42407 -1.71469 13.0678
LeftShoulder1  0 -2.42657e-020 -4.95415e-022
LeftArm  -19.9066 -2.09893 -83.7344
LeftForeArm  42.992 -28.5895 -5.49311
LeftHand  0.269876 -9.53661 -3.60704
RightShoulder  0 2.42657e-020 1.07489e-018
RightArm  -16.3003 -1.6732 92.0752
RightForeArm  49.7301 24.2926 4.53459
RightHand  -0.703563 23.6356 -2.99239
LeftUpLeg  -19.623 -14.7263 1.47124
LeftLeg  28.6183 -11.8538 -5.45917
LeftFoot  -4.55034 0.0427138 1.07506
LeftToes  -12.8427 9.37529e-007 1.1992e-007
411
root  47.7989 33.0762 6.69587 -175.522 -66.8717 -178.793
RightUpLeg  -21.5355 -28.1976 -5.77191
RightLeg  39.3849 -9.93046 -7.08086
RightFoot  -1.0587 0.000857584 0.470679
RightToes  -35.4745 -0.180994 -0.280807
Spine  6.39042 0.330736 -2.71535
Spine1  11.3144 1.5757 -6.43561
HEad  9.73026 -0.592089 12.0643
LeftShoulder1  0 -2.42657e-020 -4.95415e-022
LeftArm  -19.0965 -2.72681 -84.2816
LeftForeArm  42.7853 -29.1669 -5.62698
LeftHand  0.232382 -9.46871 -3.17762
RightShoulder  0 2.42657e-020 1.07489e-018
RightArm  -16.9403 -1.48107 91.5671
RightForeArm  49.5489 24.737 4.62988
RightHand  -0.777324 23.6594 -3.34086
LeftUpLeg  -19.157 -15.1736 2.6103
LeftLeg  29.2272 -11.711 -5.54457
LeftFoot  -5.53482 0.0608738 1.25927
LeftToes  -14.4908 9.37529e-007 1.1992e-007
412
root  47.6721 32.9844 5.92428 -176.057 -67.0704 -178.183
RightUpLeg  -20.9093 -23.6102 -8.3663
RightLeg  32.5857 -8.07689 -4.4445
RightFoot  -1.49556 0.00344337 0.482102
RightToes  -35.5082 -0.184144 -0.280063
Spine  6.32795 0.333701 -2.52264
Spine1  11.2256 1.48524 -6.03677
HEad  10.1175 0.11261 10.9613
LeftShoulder1  0 -2.42657e-020 -4.95415e-022
LeftArm  -18.8833 -3.23765 -84.7443
LeftForeArm  42.9309 -28.7647 -5.53354
LeftHand  0.233737 -9.49357 -3.18655
RightShoulder  0 2.42657e-020 1.07489e-018
RightArm  -17.5108 -1.48958 90.7386
RightForeArm  48.9968 25.5162 4.79912
RightHand  -0.797443 23.8084 -3.41232
LeftUpLeg  -18.9148 -15.6293 3.73804
LeftLeg  30.1323 -11.1847 -5.51576
LeftFoot  -6.8282 0.0871626 1.46095
LeftToes  -16.1737 9.37529e-007 1.1992e-007
413
root  47.5521 32.8356 5.12124 -175.94 -67.0424 -178.196
RightUpLeg  -20.2293 -17.4527 -11.5122
RightLeg  26.1815 -6.31551 -2.61259
RightFoot  -1.50921 0.00916438 0.41891
RightToes  -35.9548 -0.186552 -0.280544
Spine  6.18974 0.36062 -2.41346
Spine1  10.9889 1.42477 -5.73287
HEad  10.6056 0.67336 9.86474
LeftShoulder1  0 -2.42657e-020 -4.95415e-022
LeftArm  -19.0994 -3.53939 -84.9003
LeftForeArm  43.1895 -27.3968 -5.22163
LeftHand  0.240491 -9.65363 -3.21961
RightShoulder  0 2.42657e-020 1.07489e-018
RightArm  -18.0668 -1.80325 89.807
RightForeArm  48.4651 26.5603 5.0291
RightHand  -0.776706 23.8262 -3.31121
LeftUpLeg  -18.7843 -15.742 4.71224
LeftLeg  31.14 -10.7444 -5.53711
LeftFoot  -8.27566 0.122171 1.6886
LeftToes  -17.7135 9.37529e-007 1.1992e-007
